<svg width="24" height="16" viewBox="0 0 24 16" fill="none" xmlns="http://www.w3.org/2000/svg">
<path d="M22.5002 7.17505H1.5002C1.0502 7.17505 0.637695 7.55005 0.637695 8.03755C0.637695 8.48755 1.0127 8.90005 1.5002 8.90005H22.5002C22.9502 8.90005 23.3627 8.52505 23.3627 8.03755C23.3627 7.55005 22.9502 7.17505 22.5002 7.17505Z" fill="white"/>
<path d="M22.5002 13.55H1.5002C1.0502 13.55 0.637695 13.925 0.637695 14.4125C0.637695 14.9 1.0127 15.275 1.5002 15.275H22.5002C22.9502 15.275 23.3627 14.9 23.3627 14.4125C23.3627 13.925 22.9502 13.55 22.5002 13.55Z" fill="white"/>
<path d="M1.5002 2.4501H22.5002C22.9502 2.4501 23.3627 2.0751 23.3627 1.5876C23.3627 1.1001 22.9877 0.725098 22.5002 0.725098H1.5002C1.0502 0.725098 0.637695 1.1001 0.637695 1.5876C0.637695 2.0751 1.0502 2.4501 1.5002 2.4501Z" fill="white"/>
</svg>
